<mxfile host="app.diagrams.net" modified="2022-12-23T09:48:57.180Z" agent="5.0 (Windows NT 10.0; Win64; x64) AppleWebKit/537.36 (KHTML, like Gecko) Chrome/106.0.0.0 YaBrowser/22.11.3.818 Yowser/2.5 Safari/537.36" etag="8-weXB0kcdpwPQRT5aqN" version="20.7.4" type="github">
  <diagram id="o3SfKFsg-XddMGT-pLEB" name="Страница 1">
    <mxGraphModel dx="2656" dy="1746" grid="1" gridSize="10" guides="1" tooltips="1" connect="1" arrows="1" fold="1" page="1" pageScale="1" pageWidth="827" pageHeight="1169" math="0" shadow="0">
      <root>
        <mxCell id="0" />
        <mxCell id="1" parent="0" />
        <mxCell id="TAnfAXLuEqWQbed71-oy-4" value="" style="edgeStyle=orthogonalEdgeStyle;rounded=0;orthogonalLoop=1;jettySize=auto;html=1;" parent="1" source="TAnfAXLuEqWQbed71-oy-1" target="TAnfAXLuEqWQbed71-oy-3" edge="1">
          <mxGeometry relative="1" as="geometry" />
        </mxCell>
        <mxCell id="TAnfAXLuEqWQbed71-oy-6" value="" style="edgeStyle=orthogonalEdgeStyle;rounded=0;orthogonalLoop=1;jettySize=auto;html=1;" parent="1" source="TAnfAXLuEqWQbed71-oy-1" target="TAnfAXLuEqWQbed71-oy-5" edge="1">
          <mxGeometry relative="1" as="geometry" />
        </mxCell>
        <mxCell id="TAnfAXLuEqWQbed71-oy-1" value="Форма &quot;Про аренду&quot;" style="rounded=1;whiteSpace=wrap;html=1;" parent="1" vertex="1">
          <mxGeometry x="350" y="270" width="120" height="60" as="geometry" />
        </mxCell>
        <mxCell id="TAnfAXLuEqWQbed71-oy-81" style="edgeStyle=orthogonalEdgeStyle;rounded=0;orthogonalLoop=1;jettySize=auto;html=1;entryX=0;entryY=0.5;entryDx=0;entryDy=0;" parent="1" source="TAnfAXLuEqWQbed71-oy-3" target="TAnfAXLuEqWQbed71-oy-79" edge="1">
          <mxGeometry relative="1" as="geometry" />
        </mxCell>
        <mxCell id="TAnfAXLuEqWQbed71-oy-3" value="Логика" style="whiteSpace=wrap;html=1;rounded=1;" parent="1" vertex="1">
          <mxGeometry x="550" y="270" width="120" height="60" as="geometry" />
        </mxCell>
        <mxCell id="TAnfAXLuEqWQbed71-oy-29" style="edgeStyle=orthogonalEdgeStyle;rounded=0;orthogonalLoop=1;jettySize=auto;html=1;entryX=1;entryY=0.5;entryDx=0;entryDy=0;" parent="1" source="TAnfAXLuEqWQbed71-oy-5" target="TAnfAXLuEqWQbed71-oy-27" edge="1">
          <mxGeometry relative="1" as="geometry" />
        </mxCell>
        <mxCell id="TAnfAXLuEqWQbed71-oy-5" value="Интерфейс" style="whiteSpace=wrap;html=1;rounded=1;" parent="1" vertex="1">
          <mxGeometry x="150" y="270" width="120" height="60" as="geometry" />
        </mxCell>
        <mxCell id="TAnfAXLuEqWQbed71-oy-38" style="edgeStyle=orthogonalEdgeStyle;rounded=0;orthogonalLoop=1;jettySize=auto;html=1;entryX=1;entryY=0.5;entryDx=0;entryDy=0;" parent="1" source="TAnfAXLuEqWQbed71-oy-27" target="TAnfAXLuEqWQbed71-oy-30" edge="1">
          <mxGeometry relative="1" as="geometry" />
        </mxCell>
        <mxCell id="TAnfAXLuEqWQbed71-oy-39" style="edgeStyle=orthogonalEdgeStyle;rounded=0;orthogonalLoop=1;jettySize=auto;html=1;entryX=1;entryY=0.5;entryDx=0;entryDy=0;" parent="1" source="TAnfAXLuEqWQbed71-oy-27" target="TAnfAXLuEqWQbed71-oy-31" edge="1">
          <mxGeometry relative="1" as="geometry" />
        </mxCell>
        <mxCell id="TAnfAXLuEqWQbed71-oy-40" style="edgeStyle=orthogonalEdgeStyle;rounded=0;orthogonalLoop=1;jettySize=auto;html=1;entryX=1;entryY=0.5;entryDx=0;entryDy=0;" parent="1" source="TAnfAXLuEqWQbed71-oy-27" target="TAnfAXLuEqWQbed71-oy-32" edge="1">
          <mxGeometry relative="1" as="geometry" />
        </mxCell>
        <mxCell id="TAnfAXLuEqWQbed71-oy-41" style="edgeStyle=orthogonalEdgeStyle;rounded=0;orthogonalLoop=1;jettySize=auto;html=1;entryX=1;entryY=0.5;entryDx=0;entryDy=0;" parent="1" source="TAnfAXLuEqWQbed71-oy-27" target="TAnfAXLuEqWQbed71-oy-33" edge="1">
          <mxGeometry relative="1" as="geometry" />
        </mxCell>
        <mxCell id="TAnfAXLuEqWQbed71-oy-42" style="edgeStyle=orthogonalEdgeStyle;rounded=0;orthogonalLoop=1;jettySize=auto;html=1;entryX=1;entryY=0.5;entryDx=0;entryDy=0;" parent="1" source="TAnfAXLuEqWQbed71-oy-27" target="TAnfAXLuEqWQbed71-oy-34" edge="1">
          <mxGeometry relative="1" as="geometry" />
        </mxCell>
        <mxCell id="TAnfAXLuEqWQbed71-oy-82" style="edgeStyle=orthogonalEdgeStyle;rounded=0;orthogonalLoop=1;jettySize=auto;html=1;entryX=1;entryY=0.5;entryDx=0;entryDy=0;" parent="1" source="TAnfAXLuEqWQbed71-oy-27" target="TAnfAXLuEqWQbed71-oy-36" edge="1">
          <mxGeometry relative="1" as="geometry" />
        </mxCell>
        <mxCell id="nhWWeNBIXQXk3pok1lrp-19" style="edgeStyle=orthogonalEdgeStyle;rounded=0;orthogonalLoop=1;jettySize=auto;html=1;entryX=1;entryY=0.5;entryDx=0;entryDy=0;" parent="1" source="TAnfAXLuEqWQbed71-oy-27" target="nhWWeNBIXQXk3pok1lrp-17" edge="1">
          <mxGeometry relative="1" as="geometry" />
        </mxCell>
        <mxCell id="TAnfAXLuEqWQbed71-oy-27" value="Блок ввода данных" style="whiteSpace=wrap;html=1;rounded=1;" parent="1" vertex="1">
          <mxGeometry x="-60" y="270" width="120" height="60" as="geometry" />
        </mxCell>
        <mxCell id="TAnfAXLuEqWQbed71-oy-68" style="edgeStyle=orthogonalEdgeStyle;rounded=0;orthogonalLoop=1;jettySize=auto;html=1;entryX=1;entryY=0.5;entryDx=0;entryDy=0;" parent="1" source="TAnfAXLuEqWQbed71-oy-30" target="TAnfAXLuEqWQbed71-oy-56" edge="1">
          <mxGeometry relative="1" as="geometry" />
        </mxCell>
        <mxCell id="TAnfAXLuEqWQbed71-oy-30" value="Заголовок" style="whiteSpace=wrap;html=1;rounded=1;" parent="1" vertex="1">
          <mxGeometry x="-290" y="-140" width="120" height="60" as="geometry" />
        </mxCell>
        <mxCell id="TAnfAXLuEqWQbed71-oy-69" style="edgeStyle=orthogonalEdgeStyle;rounded=0;orthogonalLoop=1;jettySize=auto;html=1;entryX=1;entryY=0.5;entryDx=0;entryDy=0;" parent="1" source="TAnfAXLuEqWQbed71-oy-31" target="TAnfAXLuEqWQbed71-oy-57" edge="1">
          <mxGeometry relative="1" as="geometry" />
        </mxCell>
        <mxCell id="nhWWeNBIXQXk3pok1lrp-3" style="edgeStyle=orthogonalEdgeStyle;rounded=0;orthogonalLoop=1;jettySize=auto;html=1;entryX=0.5;entryY=1;entryDx=0;entryDy=0;" parent="1" source="TAnfAXLuEqWQbed71-oy-31" target="nhWWeNBIXQXk3pok1lrp-1" edge="1">
          <mxGeometry relative="1" as="geometry" />
        </mxCell>
        <mxCell id="TAnfAXLuEqWQbed71-oy-31" value="Поле - Когда привезти самокат" style="whiteSpace=wrap;html=1;rounded=1;" parent="1" vertex="1">
          <mxGeometry x="-290" y="45" width="120" height="60" as="geometry" />
        </mxCell>
        <mxCell id="TAnfAXLuEqWQbed71-oy-70" style="edgeStyle=orthogonalEdgeStyle;rounded=0;orthogonalLoop=1;jettySize=auto;html=1;entryX=1;entryY=0.5;entryDx=0;entryDy=0;" parent="1" source="TAnfAXLuEqWQbed71-oy-32" target="TAnfAXLuEqWQbed71-oy-58" edge="1">
          <mxGeometry relative="1" as="geometry" />
        </mxCell>
        <mxCell id="nhWWeNBIXQXk3pok1lrp-9" style="edgeStyle=orthogonalEdgeStyle;rounded=0;orthogonalLoop=1;jettySize=auto;html=1;entryX=1;entryY=0.5;entryDx=0;entryDy=0;" parent="1" source="TAnfAXLuEqWQbed71-oy-32" target="nhWWeNBIXQXk3pok1lrp-5" edge="1">
          <mxGeometry relative="1" as="geometry">
            <Array as="points">
              <mxPoint x="-220" y="160" />
            </Array>
          </mxGeometry>
        </mxCell>
        <mxCell id="TAnfAXLuEqWQbed71-oy-32" value="Поле - Срок аренды" style="whiteSpace=wrap;html=1;rounded=1;" parent="1" vertex="1">
          <mxGeometry x="-290" y="225" width="120" height="60" as="geometry" />
        </mxCell>
        <mxCell id="TAnfAXLuEqWQbed71-oy-71" style="edgeStyle=orthogonalEdgeStyle;rounded=0;orthogonalLoop=1;jettySize=auto;html=1;entryX=1;entryY=0.5;entryDx=0;entryDy=0;" parent="1" source="TAnfAXLuEqWQbed71-oy-33" target="TAnfAXLuEqWQbed71-oy-59" edge="1">
          <mxGeometry relative="1" as="geometry" />
        </mxCell>
        <mxCell id="nhWWeNBIXQXk3pok1lrp-12" style="edgeStyle=orthogonalEdgeStyle;rounded=0;orthogonalLoop=1;jettySize=auto;html=1;entryX=1;entryY=0.5;entryDx=0;entryDy=0;" parent="1" source="TAnfAXLuEqWQbed71-oy-33" target="nhWWeNBIXQXk3pok1lrp-10" edge="1">
          <mxGeometry relative="1" as="geometry">
            <Array as="points">
              <mxPoint x="-230" y="440" />
              <mxPoint x="-150" y="440" />
              <mxPoint x="-150" y="330" />
            </Array>
          </mxGeometry>
        </mxCell>
        <mxCell id="nhWWeNBIXQXk3pok1lrp-13" style="edgeStyle=orthogonalEdgeStyle;rounded=0;orthogonalLoop=1;jettySize=auto;html=1;entryX=1;entryY=0.5;entryDx=0;entryDy=0;" parent="1" source="TAnfAXLuEqWQbed71-oy-33" target="nhWWeNBIXQXk3pok1lrp-11" edge="1">
          <mxGeometry relative="1" as="geometry" />
        </mxCell>
        <mxCell id="TAnfAXLuEqWQbed71-oy-33" value="Поле - Цвет самоката" style="whiteSpace=wrap;html=1;rounded=1;" parent="1" vertex="1">
          <mxGeometry x="-290" y="460" width="120" height="60" as="geometry" />
        </mxCell>
        <mxCell id="TAnfAXLuEqWQbed71-oy-72" style="edgeStyle=orthogonalEdgeStyle;rounded=0;orthogonalLoop=1;jettySize=auto;html=1;entryX=1;entryY=0.5;entryDx=0;entryDy=0;" parent="1" source="TAnfAXLuEqWQbed71-oy-34" target="TAnfAXLuEqWQbed71-oy-60" edge="1">
          <mxGeometry relative="1" as="geometry" />
        </mxCell>
        <mxCell id="TAnfAXLuEqWQbed71-oy-34" value="Поле ввода - Комментарий для курьера" style="whiteSpace=wrap;html=1;rounded=1;" parent="1" vertex="1">
          <mxGeometry x="-290" y="550" width="120" height="60" as="geometry" />
        </mxCell>
        <mxCell id="TAnfAXLuEqWQbed71-oy-74" style="edgeStyle=orthogonalEdgeStyle;rounded=0;orthogonalLoop=1;jettySize=auto;html=1;entryX=1;entryY=0.5;entryDx=0;entryDy=0;" parent="1" source="TAnfAXLuEqWQbed71-oy-36" target="TAnfAXLuEqWQbed71-oy-62" edge="1">
          <mxGeometry relative="1" as="geometry" />
        </mxCell>
        <mxCell id="nhWWeNBIXQXk3pok1lrp-35" style="edgeStyle=orthogonalEdgeStyle;rounded=0;orthogonalLoop=1;jettySize=auto;html=1;entryX=0.5;entryY=0;entryDx=0;entryDy=0;" parent="1" source="TAnfAXLuEqWQbed71-oy-36" target="nhWWeNBIXQXk3pok1lrp-31" edge="1">
          <mxGeometry relative="1" as="geometry" />
        </mxCell>
        <mxCell id="TAnfAXLuEqWQbed71-oy-36" value="Кнопка Заказать" style="whiteSpace=wrap;html=1;rounded=1;" parent="1" vertex="1">
          <mxGeometry x="-290" y="640" width="120" height="60" as="geometry" />
        </mxCell>
        <mxCell id="TAnfAXLuEqWQbed71-oy-56" value="Место расположение элемента, текст, шрифт, цвет, размер, орфография" style="rounded=0;whiteSpace=wrap;html=1;" parent="1" vertex="1">
          <mxGeometry x="-780" y="-140" width="430" height="60" as="geometry" />
        </mxCell>
        <mxCell id="TAnfAXLuEqWQbed71-oy-57" value="Место расположение элемента, текст, шрифт, цвет, размер, орфография, плейсхолдер" style="rounded=0;whiteSpace=wrap;html=1;" parent="1" vertex="1">
          <mxGeometry x="-780" y="45" width="430" height="60" as="geometry" />
        </mxCell>
        <mxCell id="TAnfAXLuEqWQbed71-oy-58" value="&#xa;&lt;span style=&quot;color: rgb(0, 0, 0); font-family: Helvetica; font-size: 12px; font-style: normal; font-variant-ligatures: normal; font-variant-caps: normal; font-weight: 400; letter-spacing: normal; orphans: 2; text-align: center; text-indent: 0px; text-transform: none; widows: 2; word-spacing: 0px; -webkit-text-stroke-width: 0px; background-color: rgb(248, 249, 250); text-decoration-thickness: initial; text-decoration-style: initial; text-decoration-color: initial; float: none; display: inline !important;&quot;&gt;Место расположение элемента, текст, шрифт, цвет, размер, орфография, плейсхолдер&lt;/span&gt;&#xa;&#xa;" style="rounded=0;whiteSpace=wrap;html=1;" parent="1" vertex="1">
          <mxGeometry x="-780" y="225" width="430" height="60" as="geometry" />
        </mxCell>
        <mxCell id="TAnfAXLuEqWQbed71-oy-59" value="&lt;span style=&quot;color: rgb(0, 0, 0); font-family: Helvetica; font-size: 12px; font-style: normal; font-variant-ligatures: normal; font-variant-caps: normal; font-weight: 400; letter-spacing: normal; orphans: 2; text-align: center; text-indent: 0px; text-transform: none; widows: 2; word-spacing: 0px; -webkit-text-stroke-width: 0px; background-color: rgb(248, 249, 250); text-decoration-thickness: initial; text-decoration-style: initial; text-decoration-color: initial; float: none; display: inline !important;&quot;&gt;Место расположение элемента, текст, шрифт, цвет, размер, орфография, плейсхолдер. Проверка заголовка, элементов чек-бокса&lt;/span&gt;" style="rounded=0;whiteSpace=wrap;html=1;" parent="1" vertex="1">
          <mxGeometry x="-780" y="460" width="430" height="60" as="geometry" />
        </mxCell>
        <mxCell id="TAnfAXLuEqWQbed71-oy-60" value="&#xa;&lt;span style=&quot;color: rgb(0, 0, 0); font-family: Helvetica; font-size: 12px; font-style: normal; font-variant-ligatures: normal; font-variant-caps: normal; font-weight: 400; letter-spacing: normal; orphans: 2; text-align: center; text-indent: 0px; text-transform: none; widows: 2; word-spacing: 0px; -webkit-text-stroke-width: 0px; background-color: rgb(248, 249, 250); text-decoration-thickness: initial; text-decoration-style: initial; text-decoration-color: initial; float: none; display: inline !important;&quot;&gt;Место расположение элемента, текст, шрифт, цвет, размер, орфография, плейсхолдер&lt;/span&gt;&#xa;&#xa;" style="rounded=0;whiteSpace=wrap;html=1;" parent="1" vertex="1">
          <mxGeometry x="-780" y="550" width="430" height="60" as="geometry" />
        </mxCell>
        <mxCell id="TAnfAXLuEqWQbed71-oy-62" value="&lt;span style=&quot;color: rgb(0, 0, 0); font-family: Helvetica; font-size: 12px; font-style: normal; font-variant-ligatures: normal; font-variant-caps: normal; font-weight: 400; letter-spacing: normal; orphans: 2; text-align: center; text-indent: 0px; text-transform: none; widows: 2; word-spacing: 0px; -webkit-text-stroke-width: 0px; background-color: rgb(248, 249, 250); text-decoration-thickness: initial; text-decoration-style: initial; text-decoration-color: initial; float: none; display: inline !important;&quot;&gt;Место расположение элемента, текст, шрифт, цвет, размер, орфография&lt;/span&gt;" style="rounded=0;whiteSpace=wrap;html=1;" parent="1" vertex="1">
          <mxGeometry x="-780" y="640" width="430" height="60" as="geometry" />
        </mxCell>
        <mxCell id="TAnfAXLuEqWQbed71-oy-129" style="edgeStyle=orthogonalEdgeStyle;rounded=0;orthogonalLoop=1;jettySize=auto;html=1;entryX=0;entryY=0.5;entryDx=0;entryDy=0;" parent="1" source="TAnfAXLuEqWQbed71-oy-79" target="TAnfAXLuEqWQbed71-oy-122" edge="1">
          <mxGeometry relative="1" as="geometry" />
        </mxCell>
        <mxCell id="TAnfAXLuEqWQbed71-oy-130" style="edgeStyle=orthogonalEdgeStyle;rounded=0;orthogonalLoop=1;jettySize=auto;html=1;entryX=0;entryY=0.5;entryDx=0;entryDy=0;" parent="1" source="TAnfAXLuEqWQbed71-oy-79" target="TAnfAXLuEqWQbed71-oy-123" edge="1">
          <mxGeometry relative="1" as="geometry" />
        </mxCell>
        <mxCell id="TAnfAXLuEqWQbed71-oy-131" style="edgeStyle=orthogonalEdgeStyle;rounded=0;orthogonalLoop=1;jettySize=auto;html=1;entryX=0;entryY=0.5;entryDx=0;entryDy=0;" parent="1" source="TAnfAXLuEqWQbed71-oy-79" target="TAnfAXLuEqWQbed71-oy-124" edge="1">
          <mxGeometry relative="1" as="geometry" />
        </mxCell>
        <mxCell id="TAnfAXLuEqWQbed71-oy-132" style="edgeStyle=orthogonalEdgeStyle;rounded=0;orthogonalLoop=1;jettySize=auto;html=1;entryX=0;entryY=0.25;entryDx=0;entryDy=0;" parent="1" source="TAnfAXLuEqWQbed71-oy-79" target="TAnfAXLuEqWQbed71-oy-125" edge="1">
          <mxGeometry relative="1" as="geometry" />
        </mxCell>
        <mxCell id="TAnfAXLuEqWQbed71-oy-133" style="edgeStyle=orthogonalEdgeStyle;rounded=0;orthogonalLoop=1;jettySize=auto;html=1;entryX=0;entryY=0.5;entryDx=0;entryDy=0;" parent="1" source="TAnfAXLuEqWQbed71-oy-79" target="TAnfAXLuEqWQbed71-oy-126" edge="1">
          <mxGeometry relative="1" as="geometry" />
        </mxCell>
        <mxCell id="nhWWeNBIXQXk3pok1lrp-23" style="edgeStyle=orthogonalEdgeStyle;rounded=0;orthogonalLoop=1;jettySize=auto;html=1;entryX=0;entryY=0.5;entryDx=0;entryDy=0;" parent="1" source="TAnfAXLuEqWQbed71-oy-79" target="nhWWeNBIXQXk3pok1lrp-21" edge="1">
          <mxGeometry relative="1" as="geometry" />
        </mxCell>
        <mxCell id="TAnfAXLuEqWQbed71-oy-79" value="Блок ввода данных" style="whiteSpace=wrap;html=1;rounded=1;" parent="1" vertex="1">
          <mxGeometry x="770" y="270" width="120" height="60" as="geometry" />
        </mxCell>
        <mxCell id="TAnfAXLuEqWQbed71-oy-155" style="edgeStyle=orthogonalEdgeStyle;rounded=0;orthogonalLoop=1;jettySize=auto;html=1;entryX=0;entryY=0.5;entryDx=0;entryDy=0;" parent="1" source="TAnfAXLuEqWQbed71-oy-122" target="TAnfAXLuEqWQbed71-oy-144" edge="1">
          <mxGeometry relative="1" as="geometry" />
        </mxCell>
        <mxCell id="TAnfAXLuEqWQbed71-oy-122" value="&#xa;&lt;span style=&quot;color: rgb(0, 0, 0); font-family: Helvetica; font-size: 12px; font-style: normal; font-variant-ligatures: normal; font-variant-caps: normal; font-weight: 400; letter-spacing: normal; orphans: 2; text-align: center; text-indent: 0px; text-transform: none; widows: 2; word-spacing: 0px; -webkit-text-stroke-width: 0px; background-color: rgb(248, 249, 250); text-decoration-thickness: initial; text-decoration-style: initial; text-decoration-color: initial; float: none; display: inline !important;&quot;&gt;Поле - Когда привезти самокат&lt;/span&gt;&#xa;&#xa;" style="whiteSpace=wrap;html=1;rounded=1;" parent="1" vertex="1">
          <mxGeometry x="1000" y="130" width="120" height="60" as="geometry" />
        </mxCell>
        <mxCell id="TAnfAXLuEqWQbed71-oy-156" style="edgeStyle=orthogonalEdgeStyle;rounded=0;orthogonalLoop=1;jettySize=auto;html=1;entryX=0;entryY=0.5;entryDx=0;entryDy=0;" parent="1" source="TAnfAXLuEqWQbed71-oy-123" target="TAnfAXLuEqWQbed71-oy-145" edge="1">
          <mxGeometry relative="1" as="geometry" />
        </mxCell>
        <mxCell id="TAnfAXLuEqWQbed71-oy-123" value="&#xa;&lt;span style=&quot;color: rgb(0, 0, 0); font-family: Helvetica; font-size: 12px; font-style: normal; font-variant-ligatures: normal; font-variant-caps: normal; font-weight: 400; letter-spacing: normal; orphans: 2; text-align: center; text-indent: 0px; text-transform: none; widows: 2; word-spacing: 0px; -webkit-text-stroke-width: 0px; background-color: rgb(248, 249, 250); text-decoration-thickness: initial; text-decoration-style: initial; text-decoration-color: initial; float: none; display: inline !important;&quot;&gt;Поле - Срок аренды&lt;/span&gt;&#xa;&#xa;" style="whiteSpace=wrap;html=1;rounded=1;" parent="1" vertex="1">
          <mxGeometry x="1000" y="220" width="120" height="60" as="geometry" />
        </mxCell>
        <mxCell id="TAnfAXLuEqWQbed71-oy-157" style="edgeStyle=orthogonalEdgeStyle;rounded=0;orthogonalLoop=1;jettySize=auto;html=1;entryX=0;entryY=0.5;entryDx=0;entryDy=0;" parent="1" source="TAnfAXLuEqWQbed71-oy-124" target="TAnfAXLuEqWQbed71-oy-146" edge="1">
          <mxGeometry relative="1" as="geometry" />
        </mxCell>
        <mxCell id="TAnfAXLuEqWQbed71-oy-124" value="&#xa;&lt;span style=&quot;color: rgb(0, 0, 0); font-family: Helvetica; font-size: 12px; font-style: normal; font-variant-ligatures: normal; font-variant-caps: normal; font-weight: 400; letter-spacing: normal; orphans: 2; text-align: center; text-indent: 0px; text-transform: none; widows: 2; word-spacing: 0px; -webkit-text-stroke-width: 0px; background-color: rgb(248, 249, 250); text-decoration-thickness: initial; text-decoration-style: initial; text-decoration-color: initial; float: none; display: inline !important;&quot;&gt;Поле - Цвет самоката&lt;/span&gt;&#xa;&#xa;" style="whiteSpace=wrap;html=1;rounded=1;" parent="1" vertex="1">
          <mxGeometry x="1000" y="310" width="120" height="60" as="geometry" />
        </mxCell>
        <mxCell id="TAnfAXLuEqWQbed71-oy-158" style="edgeStyle=orthogonalEdgeStyle;rounded=0;orthogonalLoop=1;jettySize=auto;html=1;entryX=0;entryY=0.5;entryDx=0;entryDy=0;" parent="1" source="TAnfAXLuEqWQbed71-oy-125" target="TAnfAXLuEqWQbed71-oy-147" edge="1">
          <mxGeometry relative="1" as="geometry" />
        </mxCell>
        <mxCell id="TAnfAXLuEqWQbed71-oy-125" value="&#xa;&lt;span style=&quot;color: rgb(0, 0, 0); font-family: Helvetica; font-size: 12px; font-style: normal; font-variant-ligatures: normal; font-variant-caps: normal; font-weight: 400; letter-spacing: normal; orphans: 2; text-align: center; text-indent: 0px; text-transform: none; widows: 2; word-spacing: 0px; -webkit-text-stroke-width: 0px; background-color: rgb(248, 249, 250); text-decoration-thickness: initial; text-decoration-style: initial; text-decoration-color: initial; float: none; display: inline !important;&quot;&gt;Поле ввода - Комментарий для курьера&lt;/span&gt;&#xa;&#xa;" style="whiteSpace=wrap;html=1;rounded=1;" parent="1" vertex="1">
          <mxGeometry x="1000" y="400" width="120" height="60" as="geometry" />
        </mxCell>
        <mxCell id="TAnfAXLuEqWQbed71-oy-159" style="edgeStyle=orthogonalEdgeStyle;rounded=0;orthogonalLoop=1;jettySize=auto;html=1;entryX=0;entryY=0.5;entryDx=0;entryDy=0;" parent="1" source="TAnfAXLuEqWQbed71-oy-126" target="TAnfAXLuEqWQbed71-oy-148" edge="1">
          <mxGeometry relative="1" as="geometry" />
        </mxCell>
        <mxCell id="nhWWeNBIXQXk3pok1lrp-29" style="edgeStyle=orthogonalEdgeStyle;rounded=0;orthogonalLoop=1;jettySize=auto;html=1;entryX=0.5;entryY=0;entryDx=0;entryDy=0;" parent="1" source="TAnfAXLuEqWQbed71-oy-126" target="nhWWeNBIXQXk3pok1lrp-25" edge="1">
          <mxGeometry relative="1" as="geometry" />
        </mxCell>
        <mxCell id="TAnfAXLuEqWQbed71-oy-126" value="&#xa;&lt;span style=&quot;color: rgb(0, 0, 0); font-family: Helvetica; font-size: 12px; font-style: normal; font-variant-ligatures: normal; font-variant-caps: normal; font-weight: 400; letter-spacing: normal; orphans: 2; text-align: center; text-indent: 0px; text-transform: none; widows: 2; word-spacing: 0px; -webkit-text-stroke-width: 0px; background-color: rgb(248, 249, 250); text-decoration-thickness: initial; text-decoration-style: initial; text-decoration-color: initial; float: none; display: inline !important;&quot;&gt;Кнопка Заказать&lt;/span&gt;&#xa;&#xa;" style="whiteSpace=wrap;html=1;rounded=1;" parent="1" vertex="1">
          <mxGeometry x="1000" y="490" width="120" height="60" as="geometry" />
        </mxCell>
        <mxCell id="TAnfAXLuEqWQbed71-oy-170" style="edgeStyle=orthogonalEdgeStyle;rounded=0;orthogonalLoop=1;jettySize=auto;html=1;entryX=0;entryY=0.5;entryDx=0;entryDy=0;fontSize=21;" parent="1" source="TAnfAXLuEqWQbed71-oy-144" target="TAnfAXLuEqWQbed71-oy-162" edge="1">
          <mxGeometry relative="1" as="geometry" />
        </mxCell>
        <mxCell id="TAnfAXLuEqWQbed71-oy-144" value="Пользователь выбирает дату доставки в выпадающем календаре. Появляется при клике на поле ввода" style="rounded=0;whiteSpace=wrap;html=1;align=left;" parent="1" vertex="1">
          <mxGeometry x="1180" y="130" width="430" height="60" as="geometry" />
        </mxCell>
        <mxCell id="TAnfAXLuEqWQbed71-oy-169" style="edgeStyle=orthogonalEdgeStyle;rounded=0;orthogonalLoop=1;jettySize=auto;html=1;entryX=0;entryY=0.25;entryDx=0;entryDy=0;fontSize=21;" parent="1" source="TAnfAXLuEqWQbed71-oy-145" target="TAnfAXLuEqWQbed71-oy-163" edge="1">
          <mxGeometry relative="1" as="geometry" />
        </mxCell>
        <mxCell id="TAnfAXLuEqWQbed71-oy-145" value="Пользователь выбирает срок аренды в выпадающем списоке" style="rounded=0;whiteSpace=wrap;html=1;" parent="1" vertex="1">
          <mxGeometry x="1180" y="220" width="430" height="60" as="geometry" />
        </mxCell>
        <mxCell id="TAnfAXLuEqWQbed71-oy-168" style="edgeStyle=orthogonalEdgeStyle;rounded=0;orthogonalLoop=1;jettySize=auto;html=1;fontSize=21;entryX=0.002;entryY=0.413;entryDx=0;entryDy=0;entryPerimeter=0;" parent="1" source="TAnfAXLuEqWQbed71-oy-146" target="TAnfAXLuEqWQbed71-oy-164" edge="1">
          <mxGeometry relative="1" as="geometry">
            <mxPoint x="1690" y="320" as="targetPoint" />
          </mxGeometry>
        </mxCell>
        <mxCell id="TAnfAXLuEqWQbed71-oy-146" value="Пользователь выбирает цвет самоката в&amp;nbsp;чек-боксе" style="rounded=0;whiteSpace=wrap;html=1;" parent="1" vertex="1">
          <mxGeometry x="1180" y="310" width="430" height="60" as="geometry" />
        </mxCell>
        <mxCell id="TAnfAXLuEqWQbed71-oy-172" style="edgeStyle=orthogonalEdgeStyle;rounded=0;orthogonalLoop=1;jettySize=auto;html=1;entryX=0;entryY=0.25;entryDx=0;entryDy=0;fontSize=21;" parent="1" source="TAnfAXLuEqWQbed71-oy-147" target="TAnfAXLuEqWQbed71-oy-171" edge="1">
          <mxGeometry relative="1" as="geometry" />
        </mxCell>
        <mxCell id="TAnfAXLuEqWQbed71-oy-147" value="Пользователь вводит комментарий для курьера" style="rounded=0;whiteSpace=wrap;html=1;" parent="1" vertex="1">
          <mxGeometry x="1180" y="400" width="430" height="60" as="geometry" />
        </mxCell>
        <mxCell id="TAnfAXLuEqWQbed71-oy-148" value="Клик по кнопке отображает всплывающее окно &quot;Заказ оформлен&quot;&amp;nbsp;" style="rounded=0;whiteSpace=wrap;html=1;fillColor=#f8cecc;strokeColor=#b85450;" parent="1" vertex="1">
          <mxGeometry x="1180" y="490" width="430" height="60" as="geometry" />
        </mxCell>
        <mxCell id="TAnfAXLuEqWQbed71-oy-162" value="&lt;h1 style=&quot;font-size: 21px;&quot;&gt;&lt;span style=&quot;font-weight: normal;&quot;&gt;Выбрать дату можно только с&lt;br&gt;завтрашнего дня. На календаре&lt;br&gt;открывается текущий месяц. Вводить&lt;br&gt;значения вручную в поле нельзя.&lt;br&gt;Когда пользователь выбирает дату,&lt;br&gt;значение сразу подставляется в&lt;br&gt;поле. Пользователь может выбрать&lt;br&gt;другую дату, поле подсвечивается&lt;br&gt;синим. &lt;font color=&quot;#ff3333&quot;&gt;Обязательно к заполнению&lt;/font&gt;&lt;/span&gt;&lt;br&gt;&lt;/h1&gt;" style="text;html=1;strokeColor=none;fillColor=none;spacing=5;spacingTop=-20;whiteSpace=wrap;overflow=hidden;rounded=0;fontSize=20;" parent="1" vertex="1">
          <mxGeometry x="1700" y="-30" width="440" height="230" as="geometry" />
        </mxCell>
        <mxCell id="TAnfAXLuEqWQbed71-oy-163" value="Можно выбрать от 1 до 7 суток. &lt;font style=&quot;&quot; color=&quot;#ff3333&quot;&gt;Обязательно к заполнению.&lt;/font&gt;" style="text;html=1;strokeColor=none;fillColor=none;spacing=5;spacingTop=-20;whiteSpace=wrap;overflow=hidden;rounded=0;fontSize=21;" parent="1" vertex="1">
          <mxGeometry x="1705" y="220" width="410" height="40" as="geometry" />
        </mxCell>
        <mxCell id="TAnfAXLuEqWQbed71-oy-164" value="&lt;h1 style=&quot;line-height: 58%;&quot;&gt;&lt;font style=&quot;font-size: 22px; font-weight: normal;&quot;&gt;Чёрный жемчуг, серая безысходность. Можно выбрать как один, так и оба варианта. &lt;font color=&quot;#ff3333&quot;&gt;Не обязательно к заполнению&lt;/font&gt;&lt;/font&gt;&lt;/h1&gt;" style="text;html=1;strokeColor=none;fillColor=none;spacing=5;spacingTop=-20;whiteSpace=wrap;overflow=hidden;rounded=0;fontSize=21;" parent="1" vertex="1">
          <mxGeometry x="1690" y="250" width="460" height="120" as="geometry" />
        </mxCell>
        <mxCell id="TAnfAXLuEqWQbed71-oy-171" value="Только русские буквы, цифры,&lt;br&gt;пробел, тире, точка, запятая. Длина&lt;br&gt;не более 24 символов (0-24, больше 24).&amp;nbsp;&lt;span style=&quot;font-size: 22px; background-color: initial;&quot;&gt;&lt;font style=&quot;&quot; color=&quot;#ff3333&quot;&gt;Не обязательно к заполнению&lt;/font&gt;&lt;/span&gt;" style="text;html=1;strokeColor=none;fillColor=none;spacing=5;spacingTop=-20;whiteSpace=wrap;overflow=hidden;rounded=0;fontSize=21;" parent="1" vertex="1">
          <mxGeometry x="1695" y="415" width="420" height="150" as="geometry" />
        </mxCell>
        <mxCell id="nhWWeNBIXQXk3pok1lrp-4" style="edgeStyle=orthogonalEdgeStyle;rounded=0;orthogonalLoop=1;jettySize=auto;html=1;entryX=1;entryY=0.5;entryDx=0;entryDy=0;" parent="1" source="nhWWeNBIXQXk3pok1lrp-1" target="nhWWeNBIXQXk3pok1lrp-2" edge="1">
          <mxGeometry relative="1" as="geometry" />
        </mxCell>
        <mxCell id="nhWWeNBIXQXk3pok1lrp-1" value="Выпадающий календарь" style="whiteSpace=wrap;html=1;rounded=1;fillColor=#f8cecc;strokeColor=#b85450;" parent="1" vertex="1">
          <mxGeometry x="-290" y="-50" width="120" height="60" as="geometry" />
        </mxCell>
        <mxCell id="nhWWeNBIXQXk3pok1lrp-2" value="Место расположение элемента, текст, шрифт, цвет, размер" style="rounded=0;whiteSpace=wrap;html=1;fillColor=#f8cecc;strokeColor=#b85450;" parent="1" vertex="1">
          <mxGeometry x="-780" y="-50" width="430" height="60" as="geometry" />
        </mxCell>
        <mxCell id="n40ELkwY5C4DB6T3Sl3e-8" style="edgeStyle=orthogonalEdgeStyle;rounded=0;orthogonalLoop=1;jettySize=auto;html=1;entryX=1;entryY=0.5;entryDx=0;entryDy=0;" edge="1" parent="1" source="nhWWeNBIXQXk3pok1lrp-5" target="n40ELkwY5C4DB6T3Sl3e-7">
          <mxGeometry relative="1" as="geometry" />
        </mxCell>
        <mxCell id="n40ELkwY5C4DB6T3Sl3e-9" style="edgeStyle=orthogonalEdgeStyle;rounded=0;orthogonalLoop=1;jettySize=auto;html=1;entryX=1;entryY=0.5;entryDx=0;entryDy=0;" edge="1" parent="1" source="nhWWeNBIXQXk3pok1lrp-5" target="n40ELkwY5C4DB6T3Sl3e-6">
          <mxGeometry relative="1" as="geometry" />
        </mxCell>
        <mxCell id="n40ELkwY5C4DB6T3Sl3e-10" style="edgeStyle=orthogonalEdgeStyle;rounded=0;orthogonalLoop=1;jettySize=auto;html=1;entryX=1;entryY=0.5;entryDx=0;entryDy=0;" edge="1" parent="1" source="nhWWeNBIXQXk3pok1lrp-5" target="n40ELkwY5C4DB6T3Sl3e-5">
          <mxGeometry relative="1" as="geometry" />
        </mxCell>
        <mxCell id="n40ELkwY5C4DB6T3Sl3e-11" style="edgeStyle=orthogonalEdgeStyle;rounded=0;orthogonalLoop=1;jettySize=auto;html=1;entryX=1;entryY=0.5;entryDx=0;entryDy=0;" edge="1" parent="1" source="nhWWeNBIXQXk3pok1lrp-5" target="n40ELkwY5C4DB6T3Sl3e-4">
          <mxGeometry relative="1" as="geometry" />
        </mxCell>
        <mxCell id="n40ELkwY5C4DB6T3Sl3e-12" style="edgeStyle=orthogonalEdgeStyle;rounded=0;orthogonalLoop=1;jettySize=auto;html=1;entryX=1;entryY=0.5;entryDx=0;entryDy=0;" edge="1" parent="1" source="nhWWeNBIXQXk3pok1lrp-5" target="n40ELkwY5C4DB6T3Sl3e-3">
          <mxGeometry relative="1" as="geometry" />
        </mxCell>
        <mxCell id="n40ELkwY5C4DB6T3Sl3e-13" style="edgeStyle=orthogonalEdgeStyle;rounded=0;orthogonalLoop=1;jettySize=auto;html=1;entryX=1;entryY=0.5;entryDx=0;entryDy=0;" edge="1" parent="1" source="nhWWeNBIXQXk3pok1lrp-5" target="n40ELkwY5C4DB6T3Sl3e-2">
          <mxGeometry relative="1" as="geometry" />
        </mxCell>
        <mxCell id="n40ELkwY5C4DB6T3Sl3e-14" style="edgeStyle=orthogonalEdgeStyle;rounded=0;orthogonalLoop=1;jettySize=auto;html=1;entryX=1;entryY=0.5;entryDx=0;entryDy=0;" edge="1" parent="1" source="nhWWeNBIXQXk3pok1lrp-5" target="n40ELkwY5C4DB6T3Sl3e-1">
          <mxGeometry relative="1" as="geometry" />
        </mxCell>
        <mxCell id="nhWWeNBIXQXk3pok1lrp-5" value="Выпадающий список" style="whiteSpace=wrap;html=1;rounded=1;fillColor=#d5e8d4;strokeColor=#82b366;" parent="1" vertex="1">
          <mxGeometry x="-780" y="130" width="120" height="60" as="geometry" />
        </mxCell>
        <mxCell id="nhWWeNBIXQXk3pok1lrp-6" value="&lt;span style=&quot;color: rgb(0, 0, 0); font-family: Helvetica; font-size: 12px; font-style: normal; font-variant-ligatures: normal; font-variant-caps: normal; font-weight: 400; letter-spacing: normal; orphans: 2; text-align: center; text-indent: 0px; text-transform: none; widows: 2; word-spacing: 0px; -webkit-text-stroke-width: 0px; background-color: rgb(248, 249, 250); text-decoration-thickness: initial; text-decoration-style: initial; text-decoration-color: initial; float: none; display: inline !important;&quot;&gt;Место расположение элемента, текст, шрифт, цвет, размер, орфография, количество элементов&lt;/span&gt;" style="rounded=0;whiteSpace=wrap;html=1;fillColor=#f8cecc;strokeColor=#b85450;" parent="1" vertex="1">
          <mxGeometry x="-1500" y="130" width="430" height="60" as="geometry" />
        </mxCell>
        <mxCell id="nhWWeNBIXQXk3pok1lrp-15" style="edgeStyle=orthogonalEdgeStyle;rounded=0;orthogonalLoop=1;jettySize=auto;html=1;entryX=1;entryY=0.5;entryDx=0;entryDy=0;" parent="1" source="nhWWeNBIXQXk3pok1lrp-10" target="nhWWeNBIXQXk3pok1lrp-14" edge="1">
          <mxGeometry relative="1" as="geometry" />
        </mxCell>
        <mxCell id="nhWWeNBIXQXk3pok1lrp-10" value="Чек бокс серая безысходность" style="whiteSpace=wrap;html=1;rounded=1;fillColor=#f8cecc;strokeColor=#b85450;" parent="1" vertex="1">
          <mxGeometry x="-290" y="300" width="120" height="60" as="geometry" />
        </mxCell>
        <mxCell id="nhWWeNBIXQXk3pok1lrp-16" style="edgeStyle=orthogonalEdgeStyle;rounded=0;orthogonalLoop=1;jettySize=auto;html=1;entryX=1;entryY=0.5;entryDx=0;entryDy=0;" parent="1" source="nhWWeNBIXQXk3pok1lrp-11" target="nhWWeNBIXQXk3pok1lrp-14" edge="1">
          <mxGeometry relative="1" as="geometry" />
        </mxCell>
        <mxCell id="nhWWeNBIXQXk3pok1lrp-11" value="Чек бокс черный жемчуг" style="whiteSpace=wrap;html=1;rounded=1;fillColor=#f8cecc;strokeColor=#b85450;" parent="1" vertex="1">
          <mxGeometry x="-290" y="370" width="120" height="60" as="geometry" />
        </mxCell>
        <mxCell id="nhWWeNBIXQXk3pok1lrp-14" value="&lt;span style=&quot;color: rgb(0, 0, 0); font-family: Helvetica; font-size: 12px; font-style: normal; font-variant-ligatures: normal; font-variant-caps: normal; font-weight: 400; letter-spacing: normal; orphans: 2; text-align: center; text-indent: 0px; text-transform: none; widows: 2; word-spacing: 0px; -webkit-text-stroke-width: 0px; background-color: rgb(248, 249, 250); text-decoration-thickness: initial; text-decoration-style: initial; text-decoration-color: initial; float: none; display: inline !important;&quot;&gt;Место расположение элемента, текст, шрифт, цвет, размер, орфография. Выделение элементов чек-бокса при проставлении галочки&lt;/span&gt;" style="rounded=0;whiteSpace=wrap;html=1;fillColor=#f8cecc;strokeColor=#b85450;" parent="1" vertex="1">
          <mxGeometry x="-780" y="330" width="430" height="60" as="geometry" />
        </mxCell>
        <mxCell id="nhWWeNBIXQXk3pok1lrp-20" style="edgeStyle=orthogonalEdgeStyle;rounded=0;orthogonalLoop=1;jettySize=auto;html=1;entryX=1;entryY=0.5;entryDx=0;entryDy=0;" parent="1" source="nhWWeNBIXQXk3pok1lrp-17" target="nhWWeNBIXQXk3pok1lrp-18" edge="1">
          <mxGeometry relative="1" as="geometry" />
        </mxCell>
        <mxCell id="nhWWeNBIXQXk3pok1lrp-17" value="Кнопка Назад" style="whiteSpace=wrap;html=1;rounded=1;fillColor=#f8cecc;strokeColor=#b85450;" parent="1" vertex="1">
          <mxGeometry x="-290" y="880" width="120" height="60" as="geometry" />
        </mxCell>
        <mxCell id="nhWWeNBIXQXk3pok1lrp-18" value="&lt;span style=&quot;color: rgb(0, 0, 0); font-family: Helvetica; font-size: 12px; font-style: normal; font-variant-ligatures: normal; font-variant-caps: normal; font-weight: 400; letter-spacing: normal; orphans: 2; text-align: center; text-indent: 0px; text-transform: none; widows: 2; word-spacing: 0px; -webkit-text-stroke-width: 0px; background-color: rgb(248, 249, 250); text-decoration-thickness: initial; text-decoration-style: initial; text-decoration-color: initial; float: none; display: inline !important;&quot;&gt;Место расположение элемента, текст, шрифт, цвет, размер, орфография&lt;/span&gt;" style="rounded=0;whiteSpace=wrap;html=1;fillColor=#f8cecc;strokeColor=#b85450;" parent="1" vertex="1">
          <mxGeometry x="-780" y="880" width="430" height="60" as="geometry" />
        </mxCell>
        <mxCell id="nhWWeNBIXQXk3pok1lrp-24" style="edgeStyle=orthogonalEdgeStyle;rounded=0;orthogonalLoop=1;jettySize=auto;html=1;entryX=0;entryY=0.5;entryDx=0;entryDy=0;" parent="1" source="nhWWeNBIXQXk3pok1lrp-21" target="nhWWeNBIXQXk3pok1lrp-22" edge="1">
          <mxGeometry relative="1" as="geometry" />
        </mxCell>
        <mxCell id="nhWWeNBIXQXk3pok1lrp-21" value="&lt;span style=&quot;color: rgb(0, 0, 0); font-family: Helvetica; font-size: 12px; font-style: normal; font-variant-ligatures: normal; font-variant-caps: normal; font-weight: 400; letter-spacing: normal; orphans: 2; text-align: center; text-indent: 0px; text-transform: none; widows: 2; word-spacing: 0px; -webkit-text-stroke-width: 0px; background-color: rgb(248, 249, 250); text-decoration-thickness: initial; text-decoration-style: initial; text-decoration-color: initial; float: none; display: inline !important;&quot;&gt;Кнопка Назад&lt;/span&gt;" style="whiteSpace=wrap;html=1;rounded=1;" parent="1" vertex="1">
          <mxGeometry x="1000" y="670" width="120" height="60" as="geometry" />
        </mxCell>
        <mxCell id="nhWWeNBIXQXk3pok1lrp-22" value="Клик по кнопке переводит на страницу Для кого самокат. При переключении между полями информация сохранется" style="rounded=0;whiteSpace=wrap;html=1;" parent="1" vertex="1">
          <mxGeometry x="1180" y="670" width="430" height="60" as="geometry" />
        </mxCell>
        <mxCell id="nhWWeNBIXQXk3pok1lrp-30" style="edgeStyle=orthogonalEdgeStyle;rounded=0;orthogonalLoop=1;jettySize=auto;html=1;entryX=0;entryY=0.5;entryDx=0;entryDy=0;" parent="1" source="nhWWeNBIXQXk3pok1lrp-25" target="nhWWeNBIXQXk3pok1lrp-26" edge="1">
          <mxGeometry relative="1" as="geometry" />
        </mxCell>
        <mxCell id="nhWWeNBIXQXk3pok1lrp-25" value="Окно &quot;Заказ оформлен&quot;" style="whiteSpace=wrap;html=1;rounded=1;fillColor=#f8cecc;strokeColor=#b85450;" parent="1" vertex="1">
          <mxGeometry x="1000" y="580" width="120" height="60" as="geometry" />
        </mxCell>
        <mxCell id="nhWWeNBIXQXk3pok1lrp-26" value="Окно имеет кнопку Посмотреть статус. Клик по кнопке Посмотреть статус ведет на экран Статуса заказа&amp;nbsp;" style="rounded=0;whiteSpace=wrap;html=1;fillColor=#f8cecc;strokeColor=#b85450;" parent="1" vertex="1">
          <mxGeometry x="1180" y="580" width="430" height="60" as="geometry" />
        </mxCell>
        <mxCell id="nhWWeNBIXQXk3pok1lrp-36" style="edgeStyle=orthogonalEdgeStyle;rounded=0;orthogonalLoop=1;jettySize=auto;html=1;entryX=1;entryY=0.5;entryDx=0;entryDy=0;" parent="1" source="nhWWeNBIXQXk3pok1lrp-31" target="nhWWeNBIXQXk3pok1lrp-32" edge="1">
          <mxGeometry relative="1" as="geometry" />
        </mxCell>
        <mxCell id="nhWWeNBIXQXk3pok1lrp-41" style="edgeStyle=orthogonalEdgeStyle;rounded=0;orthogonalLoop=1;jettySize=auto;html=1;entryX=0.5;entryY=0;entryDx=0;entryDy=0;" parent="1" source="nhWWeNBIXQXk3pok1lrp-31" target="nhWWeNBIXQXk3pok1lrp-37" edge="1">
          <mxGeometry relative="1" as="geometry" />
        </mxCell>
        <mxCell id="nhWWeNBIXQXk3pok1lrp-31" value="Окно &quot;Заказ оформлен&quot;" style="whiteSpace=wrap;html=1;rounded=1;fillColor=#f8cecc;strokeColor=#b85450;" parent="1" vertex="1">
          <mxGeometry x="-290" y="730" width="120" height="60" as="geometry" />
        </mxCell>
        <mxCell id="nhWWeNBIXQXk3pok1lrp-32" value="&lt;span style=&quot;color: rgb(0, 0, 0); font-family: Helvetica; font-size: 12px; font-style: normal; font-variant-ligatures: normal; font-variant-caps: normal; font-weight: 400; letter-spacing: normal; orphans: 2; text-align: center; text-indent: 0px; text-transform: none; widows: 2; word-spacing: 0px; -webkit-text-stroke-width: 0px; background-color: rgb(248, 249, 250); text-decoration-thickness: initial; text-decoration-style: initial; text-decoration-color: initial; float: none; display: inline !important;&quot;&gt;Место расположение элемента, текст, шрифт, цвет, размер, орфография&lt;/span&gt;" style="rounded=0;whiteSpace=wrap;html=1;fillColor=#f8cecc;strokeColor=#b85450;" parent="1" vertex="1">
          <mxGeometry x="-780" y="730" width="430" height="60" as="geometry" />
        </mxCell>
        <mxCell id="nhWWeNBIXQXk3pok1lrp-39" style="edgeStyle=orthogonalEdgeStyle;rounded=0;orthogonalLoop=1;jettySize=auto;html=1;entryX=1;entryY=0.5;entryDx=0;entryDy=0;" parent="1" source="nhWWeNBIXQXk3pok1lrp-37" target="nhWWeNBIXQXk3pok1lrp-38" edge="1">
          <mxGeometry relative="1" as="geometry" />
        </mxCell>
        <mxCell id="nhWWeNBIXQXk3pok1lrp-37" value="Кнопка Посмотреть статус" style="whiteSpace=wrap;html=1;rounded=1;fillColor=#f8cecc;strokeColor=#b85450;" parent="1" vertex="1">
          <mxGeometry x="-290" y="810" width="120" height="60" as="geometry" />
        </mxCell>
        <mxCell id="nhWWeNBIXQXk3pok1lrp-38" value="&lt;span style=&quot;color: rgb(0, 0, 0); font-family: Helvetica; font-size: 12px; font-style: normal; font-variant-ligatures: normal; font-variant-caps: normal; font-weight: 400; letter-spacing: normal; orphans: 2; text-align: center; text-indent: 0px; text-transform: none; widows: 2; word-spacing: 0px; -webkit-text-stroke-width: 0px; background-color: rgb(248, 249, 250); text-decoration-thickness: initial; text-decoration-style: initial; text-decoration-color: initial; float: none; display: inline !important;&quot;&gt;Место расположение элемента, текст, шрифт, цвет, размер, орфография&lt;/span&gt;" style="rounded=0;whiteSpace=wrap;html=1;fillColor=#f8cecc;strokeColor=#b85450;" parent="1" vertex="1">
          <mxGeometry x="-780" y="810" width="430" height="60" as="geometry" />
        </mxCell>
        <mxCell id="n40ELkwY5C4DB6T3Sl3e-21" style="edgeStyle=orthogonalEdgeStyle;rounded=0;orthogonalLoop=1;jettySize=auto;html=1;entryX=1;entryY=0.5;entryDx=0;entryDy=0;" edge="1" parent="1" source="n40ELkwY5C4DB6T3Sl3e-1" target="nhWWeNBIXQXk3pok1lrp-6">
          <mxGeometry relative="1" as="geometry" />
        </mxCell>
        <mxCell id="n40ELkwY5C4DB6T3Sl3e-1" value="Семеро суток" style="whiteSpace=wrap;html=1;rounded=1;fillColor=#d5e8d4;strokeColor=#82b366;" vertex="1" parent="1">
          <mxGeometry x="-980" y="370" width="120" height="60" as="geometry" />
        </mxCell>
        <mxCell id="n40ELkwY5C4DB6T3Sl3e-20" style="edgeStyle=orthogonalEdgeStyle;rounded=0;orthogonalLoop=1;jettySize=auto;html=1;entryX=1;entryY=0.5;entryDx=0;entryDy=0;" edge="1" parent="1" source="n40ELkwY5C4DB6T3Sl3e-2" target="nhWWeNBIXQXk3pok1lrp-6">
          <mxGeometry relative="1" as="geometry" />
        </mxCell>
        <mxCell id="n40ELkwY5C4DB6T3Sl3e-2" value="Шестеро суток" style="whiteSpace=wrap;html=1;rounded=1;fillColor=#d5e8d4;strokeColor=#82b366;" vertex="1" parent="1">
          <mxGeometry x="-980" y="290" width="120" height="60" as="geometry" />
        </mxCell>
        <mxCell id="n40ELkwY5C4DB6T3Sl3e-19" style="edgeStyle=orthogonalEdgeStyle;rounded=0;orthogonalLoop=1;jettySize=auto;html=1;entryX=1;entryY=0.5;entryDx=0;entryDy=0;" edge="1" parent="1" source="n40ELkwY5C4DB6T3Sl3e-3" target="nhWWeNBIXQXk3pok1lrp-6">
          <mxGeometry relative="1" as="geometry" />
        </mxCell>
        <mxCell id="n40ELkwY5C4DB6T3Sl3e-3" value="Пятеро суток" style="whiteSpace=wrap;html=1;rounded=1;fillColor=#d5e8d4;strokeColor=#82b366;" vertex="1" parent="1">
          <mxGeometry x="-980" y="210" width="120" height="60" as="geometry" />
        </mxCell>
        <mxCell id="n40ELkwY5C4DB6T3Sl3e-18" style="edgeStyle=orthogonalEdgeStyle;rounded=0;orthogonalLoop=1;jettySize=auto;html=1;" edge="1" parent="1" source="n40ELkwY5C4DB6T3Sl3e-4">
          <mxGeometry relative="1" as="geometry">
            <mxPoint x="-1070" y="160" as="targetPoint" />
          </mxGeometry>
        </mxCell>
        <mxCell id="n40ELkwY5C4DB6T3Sl3e-4" value="Четверо суток" style="whiteSpace=wrap;html=1;rounded=1;fillColor=#d5e8d4;strokeColor=#82b366;" vertex="1" parent="1">
          <mxGeometry x="-980" y="130" width="120" height="60" as="geometry" />
        </mxCell>
        <mxCell id="n40ELkwY5C4DB6T3Sl3e-17" style="edgeStyle=orthogonalEdgeStyle;rounded=0;orthogonalLoop=1;jettySize=auto;html=1;entryX=1;entryY=0.5;entryDx=0;entryDy=0;" edge="1" parent="1" source="n40ELkwY5C4DB6T3Sl3e-5" target="nhWWeNBIXQXk3pok1lrp-6">
          <mxGeometry relative="1" as="geometry" />
        </mxCell>
        <mxCell id="n40ELkwY5C4DB6T3Sl3e-5" value="Трое суток" style="whiteSpace=wrap;html=1;rounded=1;fillColor=#d5e8d4;strokeColor=#82b366;" vertex="1" parent="1">
          <mxGeometry x="-980" y="50" width="120" height="60" as="geometry" />
        </mxCell>
        <mxCell id="n40ELkwY5C4DB6T3Sl3e-16" style="edgeStyle=orthogonalEdgeStyle;rounded=0;orthogonalLoop=1;jettySize=auto;html=1;entryX=1;entryY=0.5;entryDx=0;entryDy=0;" edge="1" parent="1" source="n40ELkwY5C4DB6T3Sl3e-6" target="nhWWeNBIXQXk3pok1lrp-6">
          <mxGeometry relative="1" as="geometry" />
        </mxCell>
        <mxCell id="n40ELkwY5C4DB6T3Sl3e-6" value="Двое суток" style="whiteSpace=wrap;html=1;rounded=1;fillColor=#d5e8d4;strokeColor=#82b366;" vertex="1" parent="1">
          <mxGeometry x="-980" y="-30" width="120" height="60" as="geometry" />
        </mxCell>
        <mxCell id="n40ELkwY5C4DB6T3Sl3e-15" style="edgeStyle=orthogonalEdgeStyle;rounded=0;orthogonalLoop=1;jettySize=auto;html=1;entryX=1;entryY=0.5;entryDx=0;entryDy=0;" edge="1" parent="1" source="n40ELkwY5C4DB6T3Sl3e-7" target="nhWWeNBIXQXk3pok1lrp-6">
          <mxGeometry relative="1" as="geometry" />
        </mxCell>
        <mxCell id="n40ELkwY5C4DB6T3Sl3e-7" value="Сутки" style="whiteSpace=wrap;html=1;rounded=1;fillColor=#d5e8d4;strokeColor=#82b366;" vertex="1" parent="1">
          <mxGeometry x="-980" y="-105" width="120" height="60" as="geometry" />
        </mxCell>
      </root>
    </mxGraphModel>
  </diagram>
</mxfile>
